/* XPM */
static char *f3827f57bac64446e552a904d2bd0971[] = {
/* columns rows colors chars-per-pixel */
"64 64 213 2 ",
"   c None",
".  c #0F0719",
"X  c #130B1C",
"o  c #190E1F",
"O  c #1D111F",
"+  c #1D1C1D",
"@  c #24151F",
"#  c #2B1A1E",
"$  c #311C1D",
"%  c #1F211E",
"&  c #21231E",
"*  c #222A1F",
"=  c #1B0F20",
"-  c #1E1221",
";  c #1D1925",
":  c #1D1B33",
">  c #221322",
",  c #271A25",
"<  c #361D2D",
"1  c #391E2E",
"2  c #351F23",
"3  c #3D1F30",
"4  c #1E2131",
"5  c #2C2424",
"6  c #292628",
"7  c #342626",
"8  c #202433",
"9  c #2B2531",
"0  c #2D2934",
"q  c #3D2131",
"w  c #312C36",
"e  c #333724",
"r  c #43242F",
"t  c #442431",
"y  c #482731",
"u  c #4D2A33",
"i  c #492D3A",
"p  c #452C35",
"a  c #532D33",
"s  c #493236",
"d  c #583636",
"f  c #4B2E2F",
"g  c #653929",
"h  c #6A3C2C",
"j  c #723F2F",
"k  c #613532",
"l  c #713F30",
"z  c #355728",
"x  c #5D463A",
"c  c #48422D",
"v  c #73412D",
"b  c #79452E",
"n  c #7E492C",
"m  c #694739",
"M  c #734130",
"N  c #7B4630",
"B  c #7C4A33",
"V  c #784B36",
"C  c #7F523A",
"Z  c #6B503D",
"A  c #547E28",
"S  c #466837",
"D  c #383746",
"F  c #423941",
"G  c #463566",
"H  c #463668",
"J  c #433E73",
"K  c #573762",
"L  c #554949",
"P  c #555150",
"I  c #635147",
"U  c #6E675A",
"Y  c #6D6458",
"T  c #756957",
"R  c #75705E",
"E  c #454372",
"W  c #494674",
"Q  c #4C4B79",
"!  c #4C567F",
"~  c #767465",
"^  c #787467",
"/  c #7B7B71",
"(  c #517441",
")  c #844B2F",
"_  c #8A4E2F",
"`  c #8C502F",
"'  c #93552F",
"]  c #98582F",
"[  c #844B30",
"{  c #834F37",
"}  c #82533C",
"|  c #8A5637",
" . c #975A35",
".. c #97643A",
"X. c #8F623A",
"o. c #AC652B",
"O. c #B46A2C",
"+. c #BB6E2C",
"@. c #B0672D",
"#. c #BF712D",
"$. c #BB7634",
"%. c #C3732C",
"&. c #C97D35",
"*. c #8D5C43",
"=. c #B6424D",
"-. c #BA434C",
";. c #A54353",
":. c #BC4C53",
">. c #816E55",
",. c #867355",
"<. c #9C684C",
"1. c #857562",
"2. c #867F73",
"3. c #D24A4B",
"4. c #D25352",
"5. c #D35B58",
"6. c #C84A4E",
"7. c #D0615E",
"8. c #598729",
"9. c #6A9A2E",
"0. c #6D9B34",
"q. c #739E32",
"w. c #658A2F",
"e. c #79AB39",
"r. c #719B4F",
"t. c #88B438",
"y. c #CB8334",
"u. c #C68438",
"i. c #D38939",
"p. c #D49339",
"a. c #D59137",
"s. c #B3B54F",
"d. c #AEA550",
"f. c #B5A953",
"g. c #B7B851",
"h. c #ABA44E",
"j. c #8E8373",
"k. c #BA8F7B",
"l. c #C7B754",
"z. c #D6BE51",
"x. c #D7BB4F",
"c. c #D38F42",
"v. c #B9C54F",
"b. c #D8C55D",
"n. c #D7C157",
"m. c #C5C057",
"M. c #D8C661",
"N. c #D5C66C",
"B. c #3B4886",
"V. c #495B84",
"C. c #465FA0",
"Z. c #4F6BB6",
"A. c #5677B8",
"S. c #4861A4",
"D. c #647CBC",
"F. c #697581",
"G. c #7B888B",
"H. c #7B8993",
"J. c #5D9BAF",
"K. c #5FA6AF",
"L. c #5DA1B4",
"P. c #72ADB8",
"I. c #6AADB3",
"U. c #548F99",
"Y. c #768EC7",
"T. c #63A1CE",
"R. c #7BC8CD",
"E. c #82919A",
"W. c #8B9598",
"Q. c #91969A",
"!. c #B89687",
"~. c #B89691",
"^. c #BB9993",
"/. c #B79691",
"(. c #BCA49A",
"). c #B9A697",
"_. c #8E98A0",
"`. c #919DA5",
"'. c #8BB2B5",
"]. c #ABB9A5",
"[. c #B4AEA5",
"{. c #B19BA3",
"}. c #D18E82",
"|. c #C99A85",
" X c #D29C8A",
".X c #C7A488",
"XX c #D2A586",
"oX c #D5B58B",
"OX c #C9A799",
"+X c #C6A89A",
"@X c #D3AB99",
"#X c #D3A893",
"$X c #D3B19F",
"%X c #D5B091",
"&X c #C6AEA4",
"*X c #D4B4A1",
"=X c #D5BAA7",
"-X c #D6BDA9",
";X c #B4C9BA",
":X c #C3CDBB",
">X c #C4D1BE",
",X c #C6DCBD",
"<X c #80CBCC",
"1X c #C7D6C1",
"2X c #DADDC6",
"3X c #D5DDC9",
"4X c #CBDDD1",
"5X c #DCE5CE",
"6X c #CEE7D4",
"7X c #DEEDD6",
"8X c #DAE8D2",
"9X c #E1F1D8",
"0X c #E0EFD7",
/* pixels */
"                                                    X X X X X X X X X X X X                                                     ",
"                                                    0 0 9 9 9 0 0 9 0 0 0 9                                                     ",
"                            X X X X         X X . 0 ].1X1X1X1X1X>X1X>X>X1X].w . X X         X X X X                             ",
"                            X X & *         w w 0 P >X0X0X7X5X5X5X5X0X0X7X1XL w w w         & % o X                             ",
"                            X + 8.8.+ . . 0 ].>X:X1X8X7X7X8X=X*X*X=X7X7X7X8X1X;X;X].w . X + 8.8.+ X                             ",
"                            X + 8.8.* + 0 P 1X9X7X7X7X0X5X2X-X*X*X=X2X5X7X7X9X9X9X>XP w + * 8.8.+ X                             ",
"                                * * e S ].:X8X7X7X7X7X5X-X=X2X5X5X2X=X=X5X7X0X0X7X8X;X].S z 6 &                                 ",
"                                . ; S r.3X7X7X7X7X7X7X8X-X-X2X5X5X2X=X-X5X7X7X0X9X7X9X>Xr.S - X                                 ",
"                                . < ].,X8X0X7X7X0X0X0X0X5X2X-X*X*X=X2X5X0X0X7X7X7X7X7X5X1X].9 .                                 ",
"                                : F :X5X7X0X7X7X7X8X5X5X5X2X*X@X@X$X2X5X5X5X7X7X7X7X7X7X5X:XF 9                                 ",
"                            X , F.H.&X-X5X0X7X7X7X5X-X*X*X*X@X@X@X@X*X*X$X-X5X0X0X8X0X5X-X&XE.F.; X                             ",
"                            = ; E.`.&X=X2X5X7X7X5X3X&X(.^.^.^.^.^.^.^.^.(.&X2X5X0X0X5X2X=X&X_.E., X                             ",
"                            X ; F.`.8X2X=X-X5X5X-X&XY.D.V.J J J W W J V.D.Y.&X-X5X5X=X=X2X3X`.E.; X                             ",
"                            ; 9 H.`.5X2X$X*X2X2X&X{.D.Z.J H J J J J G J Z.D.{.&X3X2X$X$X2X3X`.F.8 >                             ",
"                        X ; P R E._.&X$X@X@X*X&XY.D.B.H ;.:./.+X^.~.6.;.H B.A.Y.&X$X@X@X$X&X_.E.R P ; X                         ",
"                        = , U ^ E._.OX@X$X$X@X{.D.Z.J K 6.4. X*X*X#X5.:.K J Z.D.{.@X$X$X@XOX_.E.^ U > =                         ",
"                    X O q p U ^ E._.OX$X5X5X$X/.Q H ;.6. X@X3X8X8X2X@X}.6.;.J Q ~.$X2X5X*XOXQ.E.^ U i q o X                     ",
"                    @ > q i U ^ E.Q.OX$X2X2X*X!.W G =.4. X*X5X7X0X8X*X X4.-.G W /.$X2X2X$X+X_.E.^ U i q @ @                     ",
"                X @ h h u p U ^ E.`.OX@X$X$X@X~.W G =.4. X*X5X7X7X5X*X X4.=.G W /.@X$X$X@XOXW.E.^ U p p j g @ X                 ",
"                X @ n _ u i U ^ H.W.(.OX@X@X@X~.W G =.4. X*X5X7X7X5X*X X4.=.G W ~.@X@X@XOX(.W.E.^ U i u _ b # X                 ",
"                X $ o.+.a p U ^ ^ / Q.Q.OX@X@X/.W G =.4. X*X5X7X7X5X*X X4.=.G W ~.@X@XOXQ.Q./ ^ ~ U i a O.o.$ .                 ",
"                o 2 O.%.m m Y U R ~ E.W.(.OX@X/.W G =.4.}.#X2X5X5X2X#X}.4.=.G W ~.@XOX(.W.H.^ ~ U Y x m %.O.2 o                 ",
"            X - < a +.i.l.f.d F U ~ ^ / Q.Q.OX~.W G =.3.4.7.OX=X*X@X7.4.3.-.G W /.OXQ.Q./ ^ ~ R i d f.l.i.+.a < = X             ",
"            X - r k @.&.x.l.Z x T T T ~ E.W.OX^.! W ;.-.6.3.}.XX X}.3.6.-.;.W ! ~.#XW.E.^ R U T x Z l.z.y.O.k r - X             ",
"            X > h B ` ] y.a.l.f.| } R ~ ~ 2..X&XP.J.W K -.3.4.4.4.4.3.-.K W J.P.[.OX2.^ ~ R } | f.l.a.y.] ` N h @ X             ",
"            X @ h ) ` ] %.&.x.z...X.,.,.T ~ !.(.'.P.V.W ;.-.-.=.=.=.-.;.W V.P.'.(.!.,.T >.>.X...z.z.&.+.] _ [ h > X             ",
"            X O r k O.%.] ] y.a.l.l.u.$.| *.1.j.).[.P.J.W G H H H H H W L.P.[.(.j.>.*.| $.u.l.z.a.y.] ] %.@.k r O X             ",
"            X - r d O.%.' ' %.&.n.n.a.y. .*.T 1.!.[.'.P.! E E E J E J V.P.'.(.!.1.T *. .y.a.z.z.&.%.' ' %.O.k r O X             ",
"            X @ h [ ` ] +.%.' ] y.a.n.n.XXk.*.} ^ j.).&X^./.^.^.^.^.~.).&X).j.R } *.k..Xn.n.a.y.' ' %.#.] ` N h > X             ",
"            X @ h [ [ ` %.%.' ' %.y.n.b.oXk...` T ~ !..XOX+X.XOX.X.XOX.X.X!.R T | ...XoXb.z.y.%.' ' %.%.` [ [ h @ X             ",
"            X - r a N _ _ ' %.%.' ' &.a.M.b.a.O.k s S ( W._.r.e.e.e.W.W.S S s d O.y.n.b.a.y.' ' %.#.' ` _ N a r - X             ",
"            X - 1 u N [ [ ` %.%.' ' %.a.M.b.a.+.k f z z r.H.0.0.0.0.G.G.S z f k +.i.b.b.i.&.' ' %.%.` ) ) b u 1 - X             ",
"            X - 3 a N _ _ [ _ ' %.i. X#X%XXXi.%.` M p p i i s f s s i i q u M ` %.i.XX#X#XXX&.%.' ` _ [ _ b a 1 = X             ",
"            X o < t l N N B ` ' %.i.k. X%XXXi.%.' N u t q q 1 3 q q q q p p N ' %.i.XX#X%Xk.&.%.' ` [ N N l t < = X             ",
"                = - t u y a +.%.] ] &.c.b.z.i.%.' N u q - = o o = X = - q u N ' %.i.b.M.a.&.] ' %.+.a u u t > o                 ",
"                X = < t t a @.+._ ` &.c.M.M.u.$.' v y < - = o o = = = ; < y b ` $.u.M.M.c.&.' ` +.@.a t 3 1 = X                 ",
"                    = > 3 t a d [ |  XXX@X.X1.>.} v , = 1 q q q 3 1 q 1 - # v { >.1.XX%X#Xk.| [ a a t 3 > =                     ",
"                    X = t u t y j { !.|..X!.1.U N g , > t u u u u u a t > , g V Y ^ !.|.|.|.} v u t u r = .                     ",
"                    X @ h l y q u a } *.1.^ P L , # < r M N N N N N N l r < > 5 L P ^ 1.*.*.a p t u l k > .                     ",
"                    > 2 C *.m x 3 t j { T U L F - o y a n ) ` ' ' ` ) [ a t = - F L Y T B j t q F l *.*.2 >                     ",
"                X @ g { k.|.l.f., > y a C V a q - @ g N [ ` %.%.%.%.` ) N h > O q s V C d t > 5 f.m.k.k.B g > X                 ",
"                @ 7 V <..XoXb.l.7 , 1 r j j t < = + g v v n o.O.O.o.b v v g @ o < t j j r < , 7 z.M.oXXX<.} 7 >                 ",
"            X @ h } k..XN.b.p.u.U P , > y t > - X o @ @ @ @ $ $ $ # # @ # + X X o > y y > , P T u.p.b.N..Xk.C g # X             ",
"            X , b *.k.oXb.x.u.$.>.Y , - < < = X X X X = 4 8 0 0 0 0 8 : o X X o X o < 1 O @ Y >.$.u.n.M.oXk.| v > X             ",
"            X @ v X.l.M.p.y.,.>.} V t < - O         X 4 U.I.;X;X:X;XI.U.8 X         o > < t V } ,.,.i.a.b.l...v @ X             ",
"            X @ h | l.z.u.$.>.T B v t 1 O X         X 8 K.R.8X9X9X6XR.K.8 X         X o 1 t v B T R $.y.l.l.| v > X             ",
"            X > q d | | I I C B a r - o             o 8 K.R.6X7X7X6XR.K.8 X             o - t a B C I I | | d r O X             ",
"            X - p d N B L L B b t 1 o X             X 8 K.R.6X7X7X6XR.K.8 X             X o 1 t b B L L N v d p - X             ",
"            X 5 d.f.x a N V a t - o                 X 8 L.R.6X7X8X6XR.K.8 X                 X - r a N N f m f.d.5 X             ",
"            5 c g.g.d t h v t < X X                 X 4 L.R.6X7X7X6XR.L.8 X                 X o 1 r v h q d g.s.s 5             ",
"        X 7 d.g.t.9.6 X O @ o o                     X : A.Y.4X7X7X6XY.A.: X                     X O O O X 6 9.t.v.h.5 .         ",
"        5 c g.v.q.A & X X X X X                     X : S.A.4X7X7X4XD.C.: X                     X X X X X % 8.9.v.s.c 5         ",
"    X 5 h.g.t.9.e +                                     : D 1X7X7X1XD :                                     + e 9.t.g.h.7 .     ",
"    X e s.v.9.A & X                                     X 9 1X7X7X>X8 .                                     X 5 8.9.v.s.e =     ",
"X O < s q.0.e %                                         X 9 1X7X0X1X0 X                                         % e 9.q.p < = X ",
"X - d x w.8.& X                                         X 9 ;X6X6X;X8 X                                         X + 8.w.x d - X ",
"X 5 d.f.x p ; X                                         X 4 P.<X<XP.4 X                                         X o f x h.h.* X ",
"X * m.m.m f # @                                         X 4 L.T.T.L.: X                                         @ , a m m.m.5 X ",
"X 5 g.n.u.o.n g @ X                                     X : A.T.T.A.: X                                     X @ g n @.$.n.l.5 X ",
"X 5 l.x.y.#.' v @ X                                     X : S.Z.Z.S.: X                                     X @ v ' #.y.x.l.& X ",
"X # %.y.] ` ` v , X                                         : : : :                                         X , v ) ` ] y.$.# X ",
"X # o.O.n b b g @ X                                         X X X X                                         X @ g b b n O.o.# X ",
"X X @ # @ @ @ @ X X                                                                                         X X @ O + @ # # X X ",
"X X . X X X X X X X                                                                                         X X X X X X . X X X "
};
