/* XPM */
static char *_62ebc57ce464f30ed93a396d65d7df0[] = {
/* columns rows colors chars-per-pixel */
"80 49 237 2 ",
"   c None",
".  c #0B0B0C",
"X  c #060707",
"o  c #0B0D12",
"O  c #0E1219",
"+  c #161719",
"@  c #14130F",
"#  c #161C28",
"$  c #0F1627",
"%  c #1B2435",
"&  c #1C232C",
"*  c #242629",
"=  c #252C37",
"-  c #2B323B",
";  c #383939",
":  c #34322F",
">  c #2B2818",
",  c #7C6810",
"<  c #4F4D35",
"1  c #554A0F",
"2  c #1B294A",
"3  c #1C2F56",
"4  c #293548",
"5  c #363C46",
"6  c #2B3952",
"7  c #233868",
"8  c #263F75",
"9  c #394557",
"0  c #3A454D",
"q  c #384A66",
"w  c #2B457D",
"e  c #284076",
"r  c #334B7C",
"t  c #354C73",
"y  c #3C5176",
"u  c #4D4C4C",
"i  c #454544",
"p  c #444C5A",
"a  c #555651",
"s  c #5D655E",
"d  c #797749",
"f  c #656859",
"g  c #6F7051",
"h  c #4A5665",
"j  c #475A78",
"k  c #525D69",
"l  c #58646A",
"z  c #4D617C",
"x  c #546374",
"c  c #58687A",
"v  c #666967",
"b  c #76776A",
"n  c #6B7678",
"m  c #747572",
"M  c #777A78",
"N  c #667070",
"B  c #937C15",
"V  c #89720F",
"C  c #8E7C25",
"Z  c #7C8676",
"A  c #978018",
"S  c #978A3A",
"D  c #978934",
"F  c #A9962C",
"G  c #B29D2B",
"H  c #A59433",
"J  c #AA9430",
"K  c #BBA428",
"L  c #C4AA26",
"P  c #D6B823",
"I  c #D1B62E",
"U  c #E8C524",
"Y  c #F1CE28",
"T  c #F6D22D",
"R  c #FCDA3C",
"E  c #FBD834",
"W  c #EECD34",
"Q  c #DEC025",
"!  c #928C56",
"~  c #A49C5A",
"^  c #AA9946",
"/  c #B9A74A",
"(  c #ABA25B",
")  c #B9A956",
"_  c #BFB05F",
"`  c #8A8C67",
"'  c #969464",
"]  c #858C76",
"[  c #919571",
"{  c #A9A364",
"}  c #B5AB68",
"|  c #BCB26A",
" . c #A8A573",
".. c #B4AB76",
"X. c #BFB37F",
"o. c #A1A170",
"O. c #C5B45C",
"+. c #C7B347",
"@. c #C8B96A",
"#. c #C7BB78",
"$. c #D0BF76",
"%. c #DAC554",
"&. c #FFDE47",
"*. c #E6CD52",
"=. c #FFE25A",
"-. c #CCC17A",
";. c #D2C57B",
":. c #D4C473",
">. c #DCCB71",
",. c #F4DC6F",
"<. c #FFE668",
"1. c #FFE776",
"2. c #2C4887",
"3. c #344D83",
"4. c #2E4E93",
"5. c #3C5382",
"6. c #455A83",
"7. c #4C6389",
"8. c #566A87",
"9. c #546E97",
"0. c #5B749D",
"q. c #587197",
"w. c #536C92",
"e. c #667588",
"r. c #757D86",
"t. c #657995",
"y. c #6A7C9A",
"u. c #65799A",
"i. c #717E94",
"p. c #5673A3",
"a. c #5976A4",
"s. c #5977A9",
"d. c #5979AD",
"f. c #5979A9",
"g. c #5A7BB2",
"h. c #5779B0",
"j. c #617CA3",
"k. c #758588",
"l. c #6B8297",
"z. c #73839B",
"x. c #798799",
"c. c #6B85A3",
"v. c #768AA5",
"b. c #7A91AD",
"n. c #7E9ABA",
"m. c #7C96B5",
"M. c #888888",
"N. c #999A85",
"B. c #858D9A",
"V. c #989997",
"C. c #8C9396",
"Z. c #99A18A",
"A. c #95A09D",
"S. c #A6A58A",
"D. c #BDB48A",
"F. c #A5A39A",
"G. c #BDB595",
"H. c #B6AC82",
"J. c #8897A7",
"K. c #959BA4",
"L. c #9A9EA4",
"P. c #849AB4",
"I. c #869CB7",
"U. c #8793A5",
"Y. c #9CA2AA",
"T. c #9FA1A5",
"R. c #94A4B9",
"E. c #A4A4A4",
"W. c #A2A6AC",
"Q. c #ABABAB",
"!. c #A7A9AA",
"~. c #B9B7A8",
"^. c #A9ADB2",
"/. c #A9B3B6",
"(. c #B4B4B4",
"). c #BBBBBC",
"_. c #B6B7B8",
"`. c #B1AFA5",
"'. c #A09F9F",
"]. c #C6BA87",
"[. c #C4BB97",
"{. c #C0BDAE",
"}. c #D6CA85",
"|. c #DDD18A",
" X c #CAC29C",
".X c #CDC392",
"XX c #DDD396",
"oX c #D0C591",
"OX c #E4D68B",
"+X c #E5DA9C",
"@X c #E6D997",
"#X c #FDE887",
"$X c #EEE19B",
"%X c #FDEB99",
"&X c #C8C3A7",
"*X c #C8C5BB",
"=X c #D0CCBA",
"-X c #E8DDA4",
";X c #ECE1AC",
":X c #EDE2A4",
">X c #FCEDA6",
",X c #EDE5B5",
"<X c #F3EAB8",
"1X c #FFF3BC",
"2X c #FDF1B6",
"3X c #FFF0A9",
"4X c #95A9C5",
"5X c #9CB4D6",
"6X c #9DB5D8",
"7X c #8FA4C2",
"8X c #A3B3C6",
"9X c #BDBEC0",
"0X c #A4BADA",
"qX c #B5C1CF",
"wX c #BECEE5",
"eX c #C4C4C4",
"rX c #CECDCD",
"tX c #C9C9C6",
"yX c #D1CEC8",
"uX c #D0CFD0",
"iX c #D1D0D0",
"pX c #CFD1D2",
"aX c #F5EECA",
"sX c #F3EDC3",
"dX c #FDF3C3",
"fX c #F9F2CC",
"gX c #FBF5D4",
"hX c #FBF6D9",
"jX c #DCE4F2",
"kX c #FFFAE4",
"lX c #FFFBEB",
"zX c #FCF7E0",
"xX c #FFFDF4",
"cX c #FFFFFE",
"vX c #F1F5F9",
"bX c #E6EBF1",
"nX c #D2DCEC",
/* pixels */
"                                                  @ + .                                                                                                         ",
"                                                1 a j 4                                                                                                         ",
"                                            , ^ :.! 0.9                                     6 9 %                                                               ",
"                                          V _ fXhX( l.6                                   < n l.9.9 O                                                           ",
"                                        V | hXcXfX~ e.%                                   C O.' k.f.y O                                                         ",
"                                        / dXaXlX+X[ 8.#                                   H 1X;X( k.j.y O                                                       ",
"                                      H $X:.) dX#.k.j O                                   A -XcX<X( k.f.q .                                                     ",
"                                    A ;.|.~ | 2X( l.q                                       ;.hX@XOX( k.a.9                                                     ",
"                                    O.$X{ ] -.:X' j.6                                       / $X/ :.OX' l.9.%                                                   ",
"                                  D $X#.Z [ |.;.] a.4                                       F $X) ( $X}.` c.y O                                                 ",
"                                  :.@X` l ` :X-.k.0.=                                       B OX| ` | 2X-.Z c.9                                                 ",
"                                F $X| N k { 2X| l.9.2                                       B OX| Z Z |.dX} l.9.%                                               ",
"                                O.$X` y c | dX) l.0.%                                       V |.-.v l { <X:X' c.j O                                             ",
"                              B |.-.n t n X.dX{ l.9.%                                       V |.;.Z t Z }.hX| k.a.6                                             ",
"                              J $X{ z r n -.dX( l.9.- ; i u u u u u u u u u i ; ; ; : : * > , +X].Z t z { <X,X' l.7.+                                           ",
"                              @.OX[ y r n -.gX{ l.w.C.9XeX{._.(.^.!.Y.!.W.W.W.T.Q.Q.!.!.E.S.^ ,X#.Z 3.y Z }.kX}.] a.6                                           ",
"                            B OX;.Z 3.r n } >X^ M W.rXrX(.Y.8X8X8XR.7XU.v.i.y.y.i.B.U.L.L.F.) sX| k.2.3.e.} gXfX{ l.j .                                         ",
"                            A %X} N c e.C...$...~.iXpXpX_.W.W.B.r.8.6.6.6.6.6.6.6.j 8.r.K.N.^ >.~ c t 2.7.' -XxX}.] q.&                                         ",
"                            C O...`.eXrXyXeX~.E.Y.W.(.tXpXrX_.E.'.L.K.V.L.T.L.T.Y.(.9XeXtXyX X.X[.^.A.x.B.[ @.+XOX! e.-                                         ",
"                            < [.=XyXrX).K.i.u.a.p.a.q.l.W.tX).Q.Q.Q.Q.E.Q.Q.W.W.Q.eXuXrX9X(.^.W./._.tXpXyX*X X}.@.' V.M.+                                       ",
"                            m rXrXrXW.t.s.d.g.g.g.c.h.h.0.U.eXpXrXuXuXuXuXuXrXuXuXtX^.U.l.a.a.a.a.0.l.U._.rXrXyX*X`._.Q.i                                       ",
"                            V.pXrXY.0.d.d.0.c N N c p.h.g.s.x.9XrXrXrXrXuXrXrXrX(.i.p.h.h.h.d.d.g.g.h.p.u.Y.tXuXrX`._.(.N                                       ",
"                          : (.uXW.0.g.a.c d F L L F d c 0.g.h.z.eXuXrXrXrXrXuX^.u.d.h.p.7.j l l c 7.9.g.g.a.B.tXuX(.(.Q.C.@                                     ",
"                X O $ 2 3 9 eXeXi.d.a.l F U R =.=.R U F s 0.g.s.K.rXrXrXrXuX{.u.h.h.7.j g H K L G S l 8.h.g.a.L.uX(.Q.Q.F.*                                     ",
"          o # 2 3 8 2.4.2.j tXW.a.g.7.D Y <.>X1X1X3X1.T G l f.h.u.9XuXuXrXrXU.a.c.7.x S Q R =.=.&.T L d z d.g.u.).).'.M.h % $ O O O o . X                       ",
"        # 7 2.4.4.2.2.2.t x eXB.s.9.f P <.1XkXxXlXlXdX1.U d w.c.a.Y.9XeXuXeXi.d.p.k H Y <.>X1XdX1X#X&.P g w.g.a.Y.{.C.j w 2.2.w w 8 7 7 3 2 % O .               ",
"      2 w 2.r r 7.w.u.z.l.m *Xl.d.w.! Y %XhXcXcXcXcXkX3X&.F 8.d.9.i.U.K.tX9Xy.g.w.g U <.1XkXlXxXlXhX%XE G x d.s.U.9Xr.6.4.4.4.4.4.4.4.4.4.4.4.w 3 O             ",
"    % e y 8.c.b.m.I.P.Z.~ ! _.t.g.c H E >XkXcXcXcXcXlX2X&.G l 9.v.5X6XI.^.).s.g.z S E %XkXcXcXcXcXxX1X=.P v s.g.v.9XM r 2.w w 8 w w w 8 2.w 2.2.2.8 $           ",
"    2 8.b.n.n.n.n.m.Z./ U / ~.0.g.8.D E %XzXcXcXcXcXlX3X&.F s b.5X6X6X4XK.).a.d.j H E >XkXcXcXcXcXxXdX=.P v d.g.i.9XM.h z e.t.t.l.l.8.l.w.t.w.8.5.r 3 X         ",
"    9 m.n.n.n.n.n.J.( ,.,./ *Xl.g.9.d U <.2XhXlXlXkXdX1.Y D x.6X5X6X6X5XK.^.u.g.y ! Y #XgXxXxXcXxXhX>X&.G l d.g.v.eXV.] o.o.o.K.P.n.n.n.n.n.I.n.m.c.9           ",
"    h n.n.n.n.n.n.J.) #X1./ =XA.s.d.c S Y =.#X3X3X>X1.E G b 4X6X5X5X5X5XI.Q.y.g.9.l P R %XdXgXhXgX3X=.U d w.g.s.B.tXV.} W *.O.+.Z.m.n.n.n.n.n.n.I.m.0           ",
"    = t.n.n.n.n.n.A.( ,.,.) =X).y.g.a.l S L T R &.E U G f B.6X6X5X5X5X6X7XK.Y.s.h.z g P R <.#X#X1.&.U S x s.g.0.^.uXV.].%.dXhX,./ A.n.n.n.n.n.n.c.9             ",
"      * x v.n.I.n.P.N.+.W / =XrX^.u.h.a.z s d S J D d k z 4X6X6X5X5X5X5X5XU.).i.g.p.j f J P Y U Q K d x p.g.s.B.rXrXV.[.+.%XcX%X+.A.n.n.n.n.v.x -               ",
"          4 x l.m.I.J.o.^ ! tXrXrX^.y.a.d.p.8.z x 7.7.9.c.5X6X6X5X5X5X5X5XU.).9Xy.g.d.7.x f d g f x 8.a.g.s.i.9XrXrXV.{.} *.#X*.{ J.I.n.c.x 5                   ",
"              & 0 h c z.r.M tXrXpXyX9XU.t.p.h.h.h.h.g.9.m.0X0X6X5X5X5X5X5XI.^.uX_.c.d.g.d.a.9.9.p.h.c.h.p.z.).uXrXrXV.).G.J / o.C.v.e.h -                       ",
"                      * & f rXrXeX9X9XtX).K.x.z.y.u.t.8.R.jXnX6X5X5X5X5X5X7XY.uXpX{.U.w.9.d.s.s.p.p.9.q.B.9XuXyXrXrXC.)._.b < p 0 =                             ",
"                          s E.'.E.!.`.eXyXyXyXeXeX9X*XV.8XvXbXqX5X5X5X5X6X7XL.uXyXyX*XF.V.L.K.V.C.B.M.V.F.E.E.E.Q.eXV.).).] X                                   ",
"                          ; '.*X&X&X[. X X X X X X X&XN.8XvXvX0X5X5X5X5X5XY.V.[. X.X.XoXoX[.].[.oX.XoX.X[.[.&X{.(.E.M._._.M..                                   ",
"                          M *X].$.@.) |.XX+XXXO.@.XX|.{ ^.bXcXwX5X5X5X5X8XN.) O.@X-X-X;X<X;./ -X;X;X;X;X$.) ;.[.=X{.M ).(.M.                                    ",
"                        : `.[.}.kXaX@XxXcXcXcX;XsXcXcXXXZ.pXcXnX5X5X5X5X8X..$XOXxXcXcXcXcXsX@XxXcXcXcXcXaX-XhX}.[.yX'.(._.m                                     ",
"                        i {.#.sXcXhX-XxXcXcXcX,XaXcXcXaX../.bXvX0X6X6X8XN.}.sX+XcXcXcXcXcXaX-XcXcXcXcXcXhX,XcXsX].yXQ.Q.Q.u                                     ",
"                        ; ~.#.,XcXhX-XxXcXcXcX;XaXcXcXcX-X../.rX9X8X^.S...hXaX+XxXcXcXcXcXaXXXcXcXcXcXcXgX,XcXsX#.yXQ.'.v                                       ",
"                          V.&X$.-X+X$.gXzXzXzX@X,XcXxXcXcX<X| {  . ...oXgXcXaXXXcXcXcXcXcXsXXXxXcXcXcXcXaX-XhX}.[.yXE.v *                                       ",
"                          i F.&X[.#.} $.].$.$.~ @.oX|.XX@XXX) G %.>.>.@X;X;X$.O.+X,X,X-X;X].+.:X<X,X,X-X$.) $.].yX).a @                                         ",
"                            : v M.F.`.~.{.{.~.G.[.[.G.[.G.G.G.G.[.[.[.].].].D.H.].].].#.].].].].].].$.].H.H.S.V.M i                                             ",
"                                @ k r.m ] m e.i ; N n m m m v i u v m M M v m a a s M b m m M v f a f M v m x e.5                                               ",
"                                  5 i.P.K.R.e.+ . p I.P.J.v.0     p i.B.K.U.8.+   = v.U.r.v.i.+     5 P.4XR.x.c *                                               ",
"                                  X = p x 0 # @   . - p p - .     @ 5 x e.h * @   X 5 c e.e.5 .     X 5 c e.p * .                                               ",
"                                                                      . .             o + +             . . X                                                   "
};
