/* XPM */
static char *ef9ad67ffdd1491e9355b7efd68c7c79[] = {
/* columns rows colors chars-per-pixel */
"64 64 147 2 ",
"   c None",
".  c #010100",
"X  c #0D0B03",
"o  c #110C09",
"O  c #131304",
"+  c #17110B",
"@  c #1D140E",
"#  c #1F190C",
"$  c #262507",
"%  c #282607",
"&  c #38340E",
"*  c #2D2514",
"=  c #322617",
"-  c #362918",
";  c #392B1E",
":  c #3E351D",
">  c #3C2D20",
",  c #423E0E",
"<  c #41351E",
"1  c #403421",
"2  c #493A25",
"3  c #4C3D2B",
"4  c #58540F",
"5  c #55521F",
"6  c #6B6913",
"7  c #726F14",
"8  c #7B7716",
"9  c #7F7C15",
"0  c #7A7619",
"q  c #7E791B",
"w  c #5D492E",
"e  c #5E4F36",
"r  c #604B36",
"t  c #69523A",
"y  c #665541",
"u  c #735E46",
"i  c #726043",
"p  c #7E6A4A",
"a  c #756650",
"s  c #827D1C",
"d  c #857E24",
"f  c #857F28",
"g  c #887257",
"h  c #84745D",
"j  c #8E7A60",
"k  c #9E9306",
"l  c #8B8617",
"z  c #868119",
"x  c #8F881D",
"c  c #918D19",
"v  c #A39707",
"b  c #A69907",
"n  c #AC9F07",
"m  c #A39708",
"M  c #A59908",
"N  c #A99D08",
"B  c #A29D1C",
"V  c #ADA007",
"C  c #ADA109",
"Z  c #B2A509",
"A  c #B5A90A",
"S  c #BAAD0B",
"D  c #BEB10C",
"F  c #B2AD1F",
"G  c #8A8633",
"H  c #948F30",
"J  c #A9A424",
"K  c #AFAC20",
"L  c #B1AD23",
"P  c #B1AD2B",
"I  c #BAB623",
"U  c #BDB822",
"Y  c #B2AE34",
"T  c #B7B33F",
"R  c #C2B50D",
"E  c #C6B90E",
"W  c #CABC0F",
"Q  c #C5B610",
"!  c #C7B910",
"~  c #CBBD11",
"^  c #C3BD24",
"/  c #CEC10F",
"(  c #D0C30F",
")  c #CEC111",
"_  c #D2C513",
"`  c #D6C914",
"'  c #DBCD15",
"]  c #DCCE18",
"[  c #DED115",
"{  c #DED11A",
"}  c #E1D415",
"|  c #E6D917",
" . c #EBDD16",
".. c #E2D41A",
"X. c #E6D91B",
"o. c #E9DD1B",
"O. c #EFE117",
"+. c #EEE21D",
"@. c #F1E51D",
"#. c #F4E91E",
"$. c #C5C023",
"%. c #DAD327",
"&. c #DED827",
"*. c #DBD62E",
"=. c #E4DC25",
"-. c #EBDF20",
";. c #EDE322",
":. c #EFE729",
">. c #EEE92B",
",. c #F1E623",
"<. c #F5EB24",
"1. c #F9EE24",
"2. c #F5ED29",
"3. c #F9EE2C",
"4. c #FBF126",
"5. c #F7F02A",
"6. c #FDF52B",
"7. c #FEF92C",
"8. c #F8EF33",
"9. c #FEF534",
"0. c #FFF935",
"q. c #FEF53B",
"w. c #FFF93B",
"e. c #B4B043",
"r. c #978368",
"t. c #C7C345",
"y. c #CCC84A",
"u. c #D4CE4D",
"i. c #FEF544",
"p. c #FFF943",
"a. c #FEF64C",
"s. c #FFF84B",
"d. c #F0EA56",
"f. c #FEF654",
"g. c #FFF953",
"h. c #FFF75B",
"j. c #FFF95C",
"k. c #FFF763",
"l. c #FFF864",
"z. c #FFF76A",
"x. c #FFF868",
"c. c #C1AC8D",
"v. c #CDB591",
"b. c #EEE4CF",
"n. c #F1E7CF",
"m. c #EFE5D1",
"M. c #F7F0DF",
/* pixels */
"                                                                                                                                ",
"                                                                                                                                ",
"                                                              7.1.                                                              ",
"                                                            7.4.1.X.                                                            ",
"                                                            6.6.6.o.                                                            ",
"                                                          7.6.3.5.;.'                                                           ",
"                                                          9.9.8.6.2.{                                                           ",
"                                                        9.q.a.i.9.5.=.`                                                         ",
"                                                        q.a.f.a.8.8.:.`                                                         ",
"                                                      0.i.h.k.d.a.8.<.{ ~                                                       ",
"                                                      w.a.l.k.f.a.8.2.o._                                                       ",
"                                                    9.q.f.l.k.h.a.8.3.;.` E                                                     ",
"                                                    9.i.h.x.k.h.a.8.3.,.{ ~                                                     ",
"                                                  7.w.i.h.x.h.h.a.i.3.<.| _ R                                                   ",
"                                                  6.q.f.k.x.h.h.d.q.8.<.@.' W                                                   ",
"                                                6.9.i.h.x.x.h.f.i.q.8.<.@.} _ R                                                 ",
"                                                6.9.a.k.x.x.h.h.a.q.8.5.#.o.` E                                                 ",
"                                              6.9.q.h.k.x.k.l.f.a.q.9.5.<.@.} / D                                               ",
"                                              6.9.i.h.l.x.l.h.h.a.q.0.5.5.#.O.` /                                               ",
"                                            6.6.9.a.h.x.k.l.h.f.i.q.7.5.5.<.@.| ` D                                             ",
"                                          6.6.6.q.f.k.l.l.l.h.f.a.q.q.5.5.1.<.@.{ _ E                                           ",
"                              7.7.7.7.6.7.6.6.7.i.j.l.l.l.x.h.f.i.q.0.9.4.1.#.#.#.+.[ [ [ ` ' `                                 ",
"                  7.7.0.9.0.9.9.w.q.w.q.q.q.9.q.s.h.h.l.h.l.h.s.i.q.0.8.5.5.1.<.<.<.#.#.+.@.+.+.o.o.X.| } [                     ",
"      6.7.9.9.w.w.i.q.i.i.i.a.a.a.a.f.a.i.i.i.a.f.h.l.l.h.h.j.s.i.q.0.0.7.4.4.4.4.1.1.<.1.1.1.1.<.1.#.<.,.#.+.+.+.X.X.| {       ",
"1.4.4.7.q.q.a.a.f.h.h.h.h.h.k.h.h.h.h.h.f.f.f.f.h.h.l.j.j.j.f.s.p.w.0.9.0.7.6.4.4.4.4.4.4.4.4.5.1.<.4.1.4.#.1.#.<.#.@.@.O. .| ' ",
";.<.1.5.8.a.f.h.x.x.x.z.z.z.l.z.x.h.h.f.j.h.f.f.j.u.G e.h.j.s.s.p.w.0.9.U z ~ 6.6.4.4.4.4.5.5.4.4.6.4.1.1.1.<.<.#.#.#.@.+.o.[ ( ",
"  o.<.5.8.a.f.h.k.z.z.z.z.z.z.k.h.h.h.h.j.f.j.j.d.5 o * t.g.f.p.q.w.9.*.& o : ;.7.5.5.6.4.4.4.4.1.5.1.4.1.1.#.#.@.@.O. .| ' W   ",
"    { ;.5.8.i.f.h.k.x.x.k.k.h.k.h.h.h.h.j.f.j.j.y.: h w H g.p.p.w.w.0.J : g : I 7.6.4.4.5.5.5.4.1.1.<.<.#.#.@.@.+.| | } ` W     ",
"      ] =.3.9.i.a.f.h.h.h.h.j.j.h.h.h.j.h.j.j.g.T e m.h G i.i.w.9.0.0.x a M.i L 7.5.7.7.6.5.1.<.2.<.<.,.@. .o.| } [ ' ( R       ",
"        ) { >.8.8.i.a.a.f.f.f.f.f.h.h.f.f.f.s.g.Y e m.r.d q.q.w.w.0.0.s a M.p L 7.6.5.5.5.5.1.2.<.;.;.o. .| } ' ( _ E S         ",
"          ) ] :.8.8.q.i.i.a.a.a.f.f.a.f.i.s.p.s.P 2 c.u d q.w.9.9.0.0.s y v.w L 0.5.7.5.5.1.2.,.,.+.o.| } } ` ( W E A           ",
"            ! ` =.,.<.3.8.8.i.i.i.s.i.i.i.i.q.w.P * e > d 0.9.w.9.9.0.q ; t - F 7.7.5.5.1.2.<.;.;.o.X...' ( W E D A             ",
"              E ` | #.#.1.8.8.q.i.q.i.q.i.q.w.w.P # = # q 0.9.9.9.9.6.0 o * # L 7.6.5.5.2.,.;.+.X.X.[ ` ) / D S C               ",
"                E ( } O.#.<.3.9.9.q.w.q.q.w.9.w.K X X . 0 0.9.9.9.7.6.8 . o X K 7.5.5.5.<.;.+.+.{ [ ` / E D S C                 ",
"                  R ( }  .@.#.6.8.9.q.9.9.q.w.9.P X . . 0 0.9.7.7.6.7.9 . . X K 7.5.5.<.,.+.X.X.[ ` / E D A C                   ",
"                    E ~ }  .#.#.3.9.9.9.9.9.9.9.I X . . s 7.6.7.6.6.7.c . . X L 7.5.>.;.;.+.X.[ ` / E D Z V                     ",
"                      E / }  .#.1.6.9.9.7.7.6.7.%.$ . . B 7.6.6.7.6.7.I O . O $.6.2.:.+.o.} [ ` / E D Z k                       ",
"                        R ( } O.#.1.6.6.6.6.6.6.6.l % 4 =.7.7.6.6.7.9.>.6 $ 7 :.2.2.;.+.| [ ` / D S Z M                         ",
"                          W `  .#.4.6.4.6.6.6.6.6.3.=.2.6.6.6.7.7.6.7.7.>.&.2.2.2.;.+.X.[ ` ) R S C k                           ",
"                            (  .#.1.6.6.4.7.4.6.6.6.6.7.7.6.7.6.5.7.7.9.6.6.5.2.2.;.o...[ _ ! S C k                             ",
"                              +.#.4.7.7.4.7.4.7.6.6.6.6.7.6.6.7.7.8.7.6.5.5.5.2.,.;.X.[ ' ( R S V                               ",
"                              +.#.6.4.7.7.4.4.7.7.6.6.7.9.6.7.7.7.6.7.7.5.5.2.>.;.;.o.{ ' ( R S C                               ",
"                              +.6.7.7.7.7.4.7.7.6.6.6.6.7.9.7.9.7.7.8.5.5.5.>.;.;.o.X.[ ' ( ! S Z                               ",
"                            o.<.4.6.4.6.7.7.7.4.6.7.6.7.6.7.6.6.7.8.7.5.5.2.:.;.;.X...{ [ ( R R Z                               ",
"                            #.1.4.7.7.4.4.7.7.4.6.6.6.6.7.5.6.6.8.6.5.2.<.>.;.;.o.X...{ ' ` ! S A M                             ",
"                            1.7.7.4.7.7.7.4.6.6.6.6.7.7.6.6.4.3.2.2.2.2.;.;.;.+.X.X...{ ' ` ! S A C                             ",
"                            4.4.4.7.4.7.7.6.6.6.6.6.6.6.<.,.,.,.;.;.;.;.;.;.;.;.o.X.....] ` W S Z N                             ",
"                            4.7.4.7.7.7.7.7.6.6.6.6.<.,.;.-.X.X.{ { { { { ;.{ X.X.X.....] ' W R Z C                             ",
"                            6.6.6.6.7.4.7.4.6.6.4.<.,.o.X.{ [ ' ` ] ~ ` ] { { X.........{ ` ~ R A C                             ",
"                            4.6.6.6.7.7.6.6.4.1.<.@.o...` ` ` _ ~ ~ ~ Q ~ ~ ] ..{ { ..{ { ` ~ R Z C                             ",
"                          4.4.6.6.6.6.6.7.4.4.,.o...` _ W E E R Q Q R R Q ~ ~ ~ ] ] { { { _ ~ Q Z C M                           ",
"                          4.4.4.6.6.6.6.4.#.#. .[ _ W R D D S A Z R R R R ~ Q ~ ~ ` ' ' ' _ ~ Q S C C                           ",
"                          4.4.4.6.6.4.4.1.#. .] _ R S A A A C N b Z S S R R R R ~ ~ ] ` ] _ ~ ! S Z C                           ",
"                          1.4.4.6.3.4.<.@.| ' ( R S A Z V N k     b n V C R A R Q Q ~ ~ ~ ~ ~ ! D A C                           ",
"                          #.1.4.6.1.<.@...` ~ R S Z n N v             b V Z Z A R R Q Q ! ~ Q Q Q S C                           ",
"                          4.1.4.1.1. .} ` W R A Z N b                     m n n Z A R Q S R Q R D D A                           ",
"                          4.#.4.<. .{ _ E S A n M                             M C A A S S R R R D D S                           ",
"                        4.1.#.#. .' ~ R A V N                                     C Z A S S S S Q Q D C                         ",
"                        1.#.@. .' W R A V                                             C A A S R D R D A                         ",
"                        #.@.} ` R A V                                                     C A A D R Q A                         ",
"                        #.| W R A                                                             Z S D R S                         ",
"                         .~ R                                                                     D D D                         ",
"                                                                                                                                ",
"                                                                                                                                "
};
